<svg width="1200" height="675" viewBox="0 0 1200 675" fill="none" xmlns="http://www.w3.org/2000/svg">
  <rect width="1200" height="675" rx="24" fill="#F3F4F6"/>
  <rect x="286" y="160" width="628" height="355" rx="16" fill="#E5E7EB"/>
  <rect x="340" y="228" width="190" height="220" rx="10" fill="#D1D5DB"/>
  <rect x="560" y="228" width="95" height="95" rx="10" fill="#D1D5DB"/>
  <rect x="675" y="228" width="95" height="95" rx="10" fill="#D1D5DB"/>
  <rect x="790" y="228" width="70" height="220" rx="10" fill="#D1D5DB"/>
  <path d="M252 268L600 92L948 268" stroke="#9CA3AF" stroke-width="24" stroke-linecap="round" stroke-linejoin="round"/>
  <circle cx="600" cy="370" r="56" fill="#9CA3AF"/>
  <path d="M600 345L610 365H634L614 378L622 401L600 388L578 401L586 378L566 365H590L600 345Z" fill="#F9FAFB"/>
  <text x="600" y="590" text-anchor="middle" fill="#6B7280" font-family="Segoe UI, Arial, sans-serif" font-size="38" font-weight="600">
    5B D>B> >1JO2;5=8O
  </text>
</svg>
